<svg xmlns="http://www.w3.org/2000/svg" xml:space="preserve" style="enable-background:new 0 0 250 250" viewBox="0 0 250 250"><circle cx="125" cy="125" r="125" fill="#036" class="st18"/><circle cx="125" cy="64.18" r="16.88" fill="#FFF" class="st4"/><path fill="#FFF" d="m142.62 112.18 37.01-10.2c4.81-1.33 7.62-6.26 6.28-11.01-1.34-4.76-6.33-7.54-11.13-6.21l-40.6 11.3a30.013 30.013 0 0 1-18.37 0l-40.59-11.3c-4.81-1.33-9.79 1.46-11.13 6.21-1.34 4.76 1.47 9.69 6.28 11.01l37.01 10.2c2.94.81 4.98 3.46 4.98 6.49v12.18c0 5.94-1.34 11.81-3.94 17.17l-19.86 41.1c-2.15 4.46-.25 9.79 4.26 11.92 4.5 2.13 9.9.24 12.05-4.21l20.05-41.5 20.2 41.5c2.15 4.46 7.55 6.34 12.05 4.21 4.5-2.13 6.41-7.47 4.26-11.92l-19.86-41.1a39.473 39.473 0 0 1-3.94-17.17v-12.18c.01-3.02 2.05-5.67 4.99-6.49z" class="st4"/></svg>